<?xml version="1.0" encoding="UTF-8" standalone="no"?>
<!-- Created with Inkscape (http://www.inkscape.org/) -->

<svg
   xmlns:dc="http://purl.org/dc/elements/1.1/"
   xmlns:cc="http://creativecommons.org/ns#"
   xmlns:rdf="http://www.w3.org/1999/02/22-rdf-syntax-ns#"
   xmlns:svg="http://www.w3.org/2000/svg"
   xmlns="http://www.w3.org/2000/svg"
   xmlns:sodipodi="http://sodipodi.sourceforge.net/DTD/sodipodi-0.dtd"
   xmlns:inkscape="http://www.inkscape.org/namespaces/inkscape"
   id="svg2"
   version="1.1"
   inkscape:version="0.48.1 r9760"
   width="202.3875"
   height="278.1625"
   xml:space="preserve"
   sodipodi:docname="zhaw_byline_neg_e.eps"><metadata
     id="metadata8"><rdf:RDF><cc:Work
         rdf:about=""><dc:format>image/svg+xml</dc:format><dc:type
           rdf:resource="http://purl.org/dc/dcmitype/StillImage" /><dc:title></dc:title></cc:Work></rdf:RDF></metadata><defs
     id="defs6" /><sodipodi:namedview
     pagecolor="#ffffff"
     bordercolor="#666666"
     borderopacity="1"
     objecttolerance="10"
     gridtolerance="10"
     guidetolerance="10"
     inkscape:pageopacity="0"
     inkscape:pageshadow="2"
     inkscape:window-width="640"
     inkscape:window-height="480"
     id="namedview4"
     showgrid="false"
     inkscape:zoom="1.2834224"
     inkscape:cx="101.19375"
     inkscape:cy="139.08125"
     inkscape:window-x="1481"
     inkscape:window-y="554"
     inkscape:window-maximized="0"
     inkscape:current-layer="g10" /><g
     id="g10"
     inkscape:groupmode="layer"
     inkscape:label="ink_ext_XXXXXX"
     transform="matrix(1.25,0,0,-1.25,0,278.1625)"><path
       inkscape:connector-curvature="0"
       id="path14"
       style="fill:#ffffff;fill-opacity:1;fill-rule:nonzero;stroke:none"
       d="m 134.025,0.144141 c 0.021,0 0.045,0.002734 0.064,0.002734 -0.033,0 -0.066,-0.002734 -0.101,-0.002734 0.012,0 0.023,0 0.037,0" /><path
       inkscape:connector-curvature="0"
       id="path16"
       style="fill:#ffffff;fill-opacity:1;fill-rule:nonzero;stroke:none"
       d="m 142.755,63.1832 c 0,-0.0043 -0.33,-1.2043 -0.33,-1.2043 l -0.418,-1.8019 c 0,0 -6.744,-29.9809 -7.808,-34.7098 -0.268,1.2398 -6.742,31.1476 -6.742,31.1476 -0.286,1.275 -0.676,2.934 -1.168,4.4731 l -0.446,1.2801 c -1.881,4.534 -6.261,7.4621 -11.168,7.4621 -4.691,0 -8.996,-2.7531 -10.968,-7.0172 -0.34,-0.8879 -0.649,-1.8777 -0.94,-3.0418 -0.273,-1.082 -0.508,-2.1859 -0.713,-3.1621 0,0 -5.7185,-26.8481 -6.6599,-31.2668 -0.289,1.209 -8.3886,34.8648 -8.3886,34.8648 l -0.3477,1.4301 c -0.2246,0.8828 -0.4297,1.582 -0.6465,2.2051 -1.5508,3.6277 -5.0937,5.9758 -9.0293,5.9887 -2.8496,-0.0098 -5.5761,-1.2528 -7.4824,-3.4071 -1.3926,-1.609 -2.2129,-3.5769 -2.3711,-5.6937 0,-0.0039 -0.0117,-0.4289 -0.0117,-0.4289 0,-0.584 0.0254,-1.1551 0.084,-1.741 0.1953,-2.0454 0.7051,-3.6711 1.1972,-5.2422 L 81.5484,10.5371 81.8336,9.63008 82.5035,7.66719 C 84.525,3.0332 89.0895,0.025 94.1363,0.00195312 L 94.232,0 c 5.2539,0.0128906 9.896,3.18086 11.828,8.06992 0.004,0.01094 0.607,2.14808 0.607,2.14808 l 0,0 c 0,0.0121 0.104,0.409 0.104,0.409 0,0 7.473,29.7742 7.74,30.8468 0.274,-1.0918 7.84,-31.2457 7.84,-31.2457 L 122.91,8.23594 C 124.775,3.32109 129.552,0.0148438 134.798,0 l 0.106,0.00195312 c 4.939,0.02499998 9.465,2.94687688 11.527,7.44023688 0.27,0.71601 0.535,1.48984 0.815,2.38164 l 0.224,0.71717 13.155,42.777 c 0.492,1.58 1.001,3.2121 1.197,5.2422 0.054,0.5859 0.082,1.157 0.082,1.741 l -0.012,0.4289 c -0.158,2.1211 -0.98,4.0898 -2.373,5.6988 -1.912,2.1531 -4.637,3.3922 -7.478,3.402 -4.192,-0.0129 -7.92,-2.6868 -9.286,-6.6477" /><path
       inkscape:connector-curvature="0"
       id="path18"
       style="fill:#ffffff;fill-opacity:1;fill-rule:nonzero;stroke:none"
       d="M 98.4234,158.941 98.4215,85.1789 c 0.0019,-5.675 4.6175,-10.291 10.2905,-10.291 5.598,0 10.213,4.5531 10.289,10.1492 0,0.0059 0,0.1418 0,0.1418 l 0,29.6251 c 0,7.92 6.401,12.823 12.329,12.823 8.697,0 9.994,-6.955 9.994,-11.101 l 0,-31.3471 0.006,-0.1707 c 0.089,-5.5793 4.701,-10.1184 10.279,-10.1203 5.68,0 10.297,4.618 10.297,10.291 l 0,34.9131 c 0,15.604 -8.948,24.919 -23.936,24.919 -7.586,0 -14.115,-2.636 -18.969,-7.591 0,1.298 0,21.519 0,21.519 L 119,159.123 c -0.1,5.574 -4.715,10.108 -10.288,10.108 -5.673,0 -10.2886,-4.616 -10.2886,-10.29" /><path
       inkscape:connector-curvature="0"
       id="path20"
       style="fill:#ffffff;fill-opacity:1;fill-rule:nonzero;stroke:none"
       d="m 44.7891,26.002 c 0,-6.6391 -6.0254,-13.0329 -15.8606,-13.0329 -6.1473,0 -9.9566,3.3207 -9.9566,7.3778 0,5.4113 4.0547,7.7461 11.5547,8.85 l 6.5164,0.984 c 2.0898,0.3703 5.7785,0.9871 7.7461,2.83 l 0,-7.0089 z M 64.9664,11.4648 c -0.5352,1.8434 -1.207,4.1364 -1.207,8.6364 l 0,30.1207 c 0,12.5519 -10.711,19.4633 -30.1586,19.4633 -18.2492,0 -29.49728,-8.6481 -29.49728,-16.9454 0,-4.6046 3.73125,-8.3378 8.33668,-8.3378 1.9985,0 3.8313,0.705 5.2672,1.8769 0.9156,0.6813 1.7578,1.4902 2.6149,2.325 2.7695,2.6981 5.9101,5.7551 13.1543,5.7551 4.9746,0 10.289,-1.6692 10.289,-6.3508 0,-4.091 -2.3066,-5.1031 -6.8379,-5.6203 L 25.9895,41.1582 C 13.1348,39.6691 0,35.923 0,19.4871 0,7.38086 10.8328,0.144141 21.3074,0.144141 c 9.8391,0 17.4563,2.978909 23.8137,9.246879 0.998,-5.96914 4.9414,-9.246879 11.3453,-9.246879 5.125,0 9.1406,3.474999 9.1406,7.909769 0,1.22109 -0.2968,2.23709 -0.6406,3.41089" /><path
       inkscape:connector-curvature="0"
       id="path22"
       style="fill:#ffffff;fill-opacity:1;fill-rule:nonzero;stroke:none"
       d="m 33.8711,132.679 0,0 c 0,0.003 0,0.006 0,0.01 0,-0.004 0,-0.007 0,-0.01" /><path
       inkscape:connector-curvature="0"
       id="path24"
       style="fill:#ffffff;fill-opacity:1;fill-rule:nonzero;stroke:none"
       d="m 42.1477,141.815 c -0.9668,0 -1.9106,-0.131 -2.8079,-0.392 -3.4445,-1.123 -5.7558,-4.306 -5.7597,-7.922 0,-3.625 2.3086,-6.812 5.7461,-7.936 0.9074,-0.265 1.8535,-0.396 2.8215,-0.396 0,0 21.6839,0 22.9418,0 C 64.2125,124.216 33.3137,90.6172 33.3137,90.6172 31.532,88.702 30.6309,86.2102 30.6309,83.2109 l 0.0097,-0.398 C 30.8191,79.1762 33.6289,75.1512 39.373,74.9 l 0.5625,-0.0121 45.7321,0 c 0.9824,0 1.9394,0.1359 2.8515,0.4062 3.4239,1.1348 5.7188,4.3161 5.7188,7.9168 0,3.6071 -2.2988,6.7911 -5.7227,7.9192 l -0.0097,0.0031 c -0.9063,0.2668 -1.8614,0.402 -2.8379,0.402 0,0 -25.2598,0 -26.5196,0 0.8692,0.9507 31.1817,34.1848 31.1817,34.1848 2.0137,2.158 3.1719,4.678 3.1719,6.912 l -0.0293,0.866 c -0.0957,1.513 -0.4473,2.871 -1.045,4.035 -0.9453,1.847 -2.498,3.166 -4.4882,3.812 -0.959,0.313 -2.0118,0.47 -3.1329,0.47 l -42.6585,0" /></g></svg>